<mxfile host="Electron" agent="Mozilla/5.0 (Windows NT 10.0; Win64; x64) AppleWebKit/537.36 (KHTML, like Gecko) draw.io/26.0.16 Chrome/132.0.6834.196 Electron/34.2.0 Safari/537.36" version="26.0.16">
  <diagram name="Page-1" id="rcQHQlIUzv_qh6wypjtV">
    <mxGraphModel dx="1591" dy="929" grid="1" gridSize="10" guides="1" tooltips="1" connect="1" arrows="1" fold="1" page="1" pageScale="1" pageWidth="850" pageHeight="1100" math="0" shadow="0">
      <root>
        <mxCell id="0" />
        <mxCell id="1" parent="0" />
        <mxCell id="65TKPUcENDkYGau0bu1g-275" value="TAHAP 1: MANAJEMEN PERSEDIAAN" style="swimlane;fontStyle=1;align=center;verticalAlign=middle;startSize=25;container=0;collapsible=0;rounded=1;arcSize=14;dropTarget=0;" vertex="1" parent="1">
          <mxGeometry x="84" y="20" width="4698" height="709" as="geometry" />
        </mxCell>
        <mxCell id="65TKPUcENDkYGau0bu1g-276" value="" style="ellipse;fillColor=strokeColor;" vertex="1" parent="1">
          <mxGeometry x="109" y="395" width="14" height="14" as="geometry" />
        </mxCell>
        <mxCell id="65TKPUcENDkYGau0bu1g-277" value="AnalisisPasar" style="rounded=1;arcSize=20;strokeWidth=2" vertex="1" parent="1">
          <mxGeometry x="173" y="355" width="107" height="40" as="geometry" />
        </mxCell>
        <mxCell id="65TKPUcENDkYGau0bu1g-278" value="PenetapanTarget" style="swimlane;fontStyle=1;align=center;verticalAlign=middle;startSize=25;container=0;collapsible=0;rounded=1;arcSize=14;dropTarget=0;verticalAlign=top;" vertex="1" parent="1">
          <mxGeometry x="410" y="319" width="551" height="111" as="geometry" />
        </mxCell>
        <mxCell id="65TKPUcENDkYGau0bu1g-279" value="" style="ellipse;fillColor=strokeColor;" vertex="1" parent="65TKPUcENDkYGau0bu1g-278">
          <mxGeometry x="46" y="56" width="14" height="14" as="geometry" />
        </mxCell>
        <mxCell id="65TKPUcENDkYGau0bu1g-280" value="EvaluasiPerforma" style="rounded=1;arcSize=20;strokeWidth=2" vertex="1" parent="65TKPUcENDkYGau0bu1g-278">
          <mxGeometry x="135" y="43" width="139" height="40" as="geometry" />
        </mxCell>
        <mxCell id="65TKPUcENDkYGau0bu1g-281" value="SetTarget" style="rounded=1;arcSize=20;strokeWidth=2" vertex="1" parent="65TKPUcENDkYGau0bu1g-278">
          <mxGeometry x="349" y="43" width="84" height="40" as="geometry" />
        </mxCell>
        <mxCell id="65TKPUcENDkYGau0bu1g-282" value="" style="ellipse;shape=endState;fillColor=strokeColor;" vertex="1" parent="65TKPUcENDkYGau0bu1g-278">
          <mxGeometry x="508" y="56" width="14" height="14" as="geometry" />
        </mxCell>
        <mxCell id="65TKPUcENDkYGau0bu1g-283" value="" style="curved=1;startArrow=none;;exitX=0.96;exitY=0.5;entryX=0;entryY=0.5;rounded=0;" edge="1" parent="65TKPUcENDkYGau0bu1g-278" source="65TKPUcENDkYGau0bu1g-279" target="65TKPUcENDkYGau0bu1g-280">
          <mxGeometry relative="1" as="geometry">
            <Array as="points" />
          </mxGeometry>
        </mxCell>
        <mxCell id="65TKPUcENDkYGau0bu1g-284" value="" style="curved=1;startArrow=none;;exitX=1;exitY=0.5;entryX=0;entryY=0.5;rounded=0;" edge="1" parent="65TKPUcENDkYGau0bu1g-278" source="65TKPUcENDkYGau0bu1g-280" target="65TKPUcENDkYGau0bu1g-281">
          <mxGeometry relative="1" as="geometry">
            <Array as="points" />
          </mxGeometry>
        </mxCell>
        <mxCell id="65TKPUcENDkYGau0bu1g-285" value="" style="curved=1;startArrow=none;;exitX=0.99;exitY=0.5;entryX=-0.03;entryY=0.5;rounded=0;" edge="1" parent="65TKPUcENDkYGau0bu1g-278" source="65TKPUcENDkYGau0bu1g-281" target="65TKPUcENDkYGau0bu1g-282">
          <mxGeometry relative="1" as="geometry">
            <Array as="points" />
          </mxGeometry>
        </mxCell>
        <mxCell id="65TKPUcENDkYGau0bu1g-286" value="PerencanaanPengadaan" style="swimlane;fontStyle=1;align=center;verticalAlign=middle;startSize=25;container=0;collapsible=0;rounded=1;arcSize=14;dropTarget=0;verticalAlign=top;" vertex="1" parent="1">
          <mxGeometry x="1187" y="55" width="227" height="639" as="geometry" />
        </mxCell>
        <mxCell id="65TKPUcENDkYGau0bu1g-287" value="" style="ellipse;fillColor=strokeColor;" vertex="1" parent="65TKPUcENDkYGau0bu1g-286">
          <mxGeometry x="115" y="46" width="14" height="14" as="geometry" />
        </mxCell>
        <mxCell id="65TKPUcENDkYGau0bu1g-288" value="AnalisisPermintaan" style="rounded=1;arcSize=20;strokeWidth=2" vertex="1" parent="65TKPUcENDkYGau0bu1g-286">
          <mxGeometry x="46" y="135" width="151" height="40" as="geometry" />
        </mxCell>
        <mxCell id="65TKPUcENDkYGau0bu1g-289" value="PerencanaanBudget" style="rounded=1;arcSize=20;strokeWidth=2" vertex="1" parent="65TKPUcENDkYGau0bu1g-286">
          <mxGeometry x="43" y="250" width="157" height="40" as="geometry" />
        </mxCell>
        <mxCell id="65TKPUcENDkYGau0bu1g-290" value="NegosiasiBudget" style="rounded=1;arcSize=20;strokeWidth=2" vertex="1" parent="65TKPUcENDkYGau0bu1g-286">
          <mxGeometry x="56" y="365" width="132" height="40" as="geometry" />
        </mxCell>
        <mxCell id="65TKPUcENDkYGau0bu1g-291" value="PersetujuanBudget" style="rounded=1;arcSize=20;strokeWidth=2" vertex="1" parent="65TKPUcENDkYGau0bu1g-286">
          <mxGeometry x="46" y="480" width="151" height="40" as="geometry" />
        </mxCell>
        <mxCell id="65TKPUcENDkYGau0bu1g-292" value="" style="ellipse;shape=endState;fillColor=strokeColor;" vertex="1" parent="65TKPUcENDkYGau0bu1g-286">
          <mxGeometry x="115" y="595" width="14" height="14" as="geometry" />
        </mxCell>
        <mxCell id="65TKPUcENDkYGau0bu1g-293" value="" style="curved=1;startArrow=none;;exitX=0.47;exitY=0.96;entryX=0.5;entryY=-0.01;rounded=0;" edge="1" parent="65TKPUcENDkYGau0bu1g-286" source="65TKPUcENDkYGau0bu1g-287" target="65TKPUcENDkYGau0bu1g-288">
          <mxGeometry relative="1" as="geometry">
            <Array as="points" />
          </mxGeometry>
        </mxCell>
        <mxCell id="65TKPUcENDkYGau0bu1g-294" value="" style="curved=1;startArrow=none;;exitX=0.5;exitY=0.99;entryX=0.5;entryY=-0.01;rounded=0;" edge="1" parent="65TKPUcENDkYGau0bu1g-286" source="65TKPUcENDkYGau0bu1g-288" target="65TKPUcENDkYGau0bu1g-289">
          <mxGeometry relative="1" as="geometry">
            <Array as="points" />
          </mxGeometry>
        </mxCell>
        <mxCell id="65TKPUcENDkYGau0bu1g-295" value="" style="curved=1;startArrow=none;;exitX=0.5;exitY=0.99;entryX=0.5;entryY=-0.01;rounded=0;" edge="1" parent="65TKPUcENDkYGau0bu1g-286" source="65TKPUcENDkYGau0bu1g-289" target="65TKPUcENDkYGau0bu1g-290">
          <mxGeometry relative="1" as="geometry">
            <Array as="points" />
          </mxGeometry>
        </mxCell>
        <mxCell id="65TKPUcENDkYGau0bu1g-296" value="" style="curved=1;startArrow=none;;exitX=0.5;exitY=0.99;entryX=0.5;entryY=-0.01;rounded=0;" edge="1" parent="65TKPUcENDkYGau0bu1g-286" source="65TKPUcENDkYGau0bu1g-290" target="65TKPUcENDkYGau0bu1g-291">
          <mxGeometry relative="1" as="geometry">
            <Array as="points" />
          </mxGeometry>
        </mxCell>
        <mxCell id="65TKPUcENDkYGau0bu1g-297" value="" style="curved=1;startArrow=none;;exitX=0.5;exitY=0.99;entryX=0.47;entryY=-0.04;rounded=0;" edge="1" parent="65TKPUcENDkYGau0bu1g-286" source="65TKPUcENDkYGau0bu1g-291" target="65TKPUcENDkYGau0bu1g-292">
          <mxGeometry relative="1" as="geometry">
            <Array as="points" />
          </mxGeometry>
        </mxCell>
        <mxCell id="65TKPUcENDkYGau0bu1g-298" value="PemilihanSupplier" style="swimlane;fontStyle=1;align=center;verticalAlign=middle;startSize=25;container=0;collapsible=0;rounded=1;arcSize=14;dropTarget=0;verticalAlign=top;" vertex="1" parent="1">
          <mxGeometry x="1612" y="55" width="230" height="639" as="geometry" />
        </mxCell>
        <mxCell id="65TKPUcENDkYGau0bu1g-299" value="" style="ellipse;fillColor=strokeColor;" vertex="1" parent="65TKPUcENDkYGau0bu1g-298">
          <mxGeometry x="116" y="46" width="14" height="14" as="geometry" />
        </mxCell>
        <mxCell id="65TKPUcENDkYGau0bu1g-300" value="EvaluasiSupplier" style="rounded=1;arcSize=20;strokeWidth=2" vertex="1" parent="65TKPUcENDkYGau0bu1g-298">
          <mxGeometry x="57" y="135" width="132" height="40" as="geometry" />
        </mxCell>
        <mxCell id="65TKPUcENDkYGau0bu1g-301" value="PenetapanKriteria" style="rounded=1;arcSize=20;strokeWidth=2" vertex="1" parent="65TKPUcENDkYGau0bu1g-298">
          <mxGeometry x="50" y="250" width="145" height="40" as="geometry" />
        </mxCell>
        <mxCell id="65TKPUcENDkYGau0bu1g-302" value="SeleksiSupplier" style="rounded=1;arcSize=20;strokeWidth=2" vertex="1" parent="65TKPUcENDkYGau0bu1g-298">
          <mxGeometry x="61" y="365" width="123" height="40" as="geometry" />
        </mxCell>
        <mxCell id="65TKPUcENDkYGau0bu1g-303" value="PersetujuanSupplier" style="rounded=1;arcSize=20;strokeWidth=2" vertex="1" parent="65TKPUcENDkYGau0bu1g-298">
          <mxGeometry x="43" y="480" width="160" height="40" as="geometry" />
        </mxCell>
        <mxCell id="65TKPUcENDkYGau0bu1g-304" value="" style="ellipse;shape=endState;fillColor=strokeColor;" vertex="1" parent="65TKPUcENDkYGau0bu1g-298">
          <mxGeometry x="116" y="595" width="14" height="14" as="geometry" />
        </mxCell>
        <mxCell id="65TKPUcENDkYGau0bu1g-305" value="" style="curved=1;startArrow=none;;exitX=0.49;exitY=0.96;entryX=0.5;entryY=-0.01;rounded=0;" edge="1" parent="65TKPUcENDkYGau0bu1g-298" source="65TKPUcENDkYGau0bu1g-299" target="65TKPUcENDkYGau0bu1g-300">
          <mxGeometry relative="1" as="geometry">
            <Array as="points" />
          </mxGeometry>
        </mxCell>
        <mxCell id="65TKPUcENDkYGau0bu1g-306" value="" style="curved=1;startArrow=none;;exitX=0.5;exitY=0.99;entryX=0.5;entryY=-0.01;rounded=0;" edge="1" parent="65TKPUcENDkYGau0bu1g-298" source="65TKPUcENDkYGau0bu1g-300" target="65TKPUcENDkYGau0bu1g-301">
          <mxGeometry relative="1" as="geometry">
            <Array as="points" />
          </mxGeometry>
        </mxCell>
        <mxCell id="65TKPUcENDkYGau0bu1g-307" value="" style="curved=1;startArrow=none;;exitX=0.5;exitY=0.99;entryX=0.5;entryY=-0.01;rounded=0;" edge="1" parent="65TKPUcENDkYGau0bu1g-298" source="65TKPUcENDkYGau0bu1g-301" target="65TKPUcENDkYGau0bu1g-302">
          <mxGeometry relative="1" as="geometry">
            <Array as="points" />
          </mxGeometry>
        </mxCell>
        <mxCell id="65TKPUcENDkYGau0bu1g-308" value="" style="curved=1;startArrow=none;;exitX=0.5;exitY=0.99;entryX=0.5;entryY=-0.01;rounded=0;" edge="1" parent="65TKPUcENDkYGau0bu1g-298" source="65TKPUcENDkYGau0bu1g-302" target="65TKPUcENDkYGau0bu1g-303">
          <mxGeometry relative="1" as="geometry">
            <Array as="points" />
          </mxGeometry>
        </mxCell>
        <mxCell id="65TKPUcENDkYGau0bu1g-309" value="" style="curved=1;startArrow=none;;exitX=0.5;exitY=0.99;entryX=0.49;entryY=-0.04;rounded=0;" edge="1" parent="65TKPUcENDkYGau0bu1g-298" source="65TKPUcENDkYGau0bu1g-303" target="65TKPUcENDkYGau0bu1g-304">
          <mxGeometry relative="1" as="geometry">
            <Array as="points" />
          </mxGeometry>
        </mxCell>
        <mxCell id="65TKPUcENDkYGau0bu1g-310" value="OtorisasiPenerimaan" style="swimlane;fontStyle=1;align=center;verticalAlign=middle;startSize=25;container=0;collapsible=0;rounded=1;arcSize=14;dropTarget=0;verticalAlign=top;" vertex="1" parent="1">
          <mxGeometry x="2037" y="113" width="221" height="524" as="geometry" />
        </mxCell>
        <mxCell id="65TKPUcENDkYGau0bu1g-311" value="" style="ellipse;fillColor=strokeColor;" vertex="1" parent="65TKPUcENDkYGau0bu1g-310">
          <mxGeometry x="112" y="46" width="14" height="14" as="geometry" />
        </mxCell>
        <mxCell id="65TKPUcENDkYGau0bu1g-312" value="PenetapanStandar" style="rounded=1;arcSize=20;strokeWidth=2" vertex="1" parent="65TKPUcENDkYGau0bu1g-310">
          <mxGeometry x="46" y="135" width="146" height="40" as="geometry" />
        </mxCell>
        <mxCell id="65TKPUcENDkYGau0bu1g-313" value="PengesahanSOP" style="rounded=1;arcSize=20;strokeWidth=2" vertex="1" parent="65TKPUcENDkYGau0bu1g-310">
          <mxGeometry x="55" y="250" width="127" height="40" as="geometry" />
        </mxCell>
        <mxCell id="65TKPUcENDkYGau0bu1g-314" value="DelagasiWewenang" style="rounded=1;arcSize=20;strokeWidth=2" vertex="1" parent="65TKPUcENDkYGau0bu1g-310">
          <mxGeometry x="43" y="365" width="151" height="40" as="geometry" />
        </mxCell>
        <mxCell id="65TKPUcENDkYGau0bu1g-315" value="" style="ellipse;shape=endState;fillColor=strokeColor;" vertex="1" parent="65TKPUcENDkYGau0bu1g-310">
          <mxGeometry x="112" y="480" width="14" height="14" as="geometry" />
        </mxCell>
        <mxCell id="65TKPUcENDkYGau0bu1g-316" value="" style="curved=1;startArrow=none;;exitX=0.48;exitY=0.96;entryX=0.5;entryY=-0.01;rounded=0;" edge="1" parent="65TKPUcENDkYGau0bu1g-310" source="65TKPUcENDkYGau0bu1g-311" target="65TKPUcENDkYGau0bu1g-312">
          <mxGeometry relative="1" as="geometry">
            <Array as="points" />
          </mxGeometry>
        </mxCell>
        <mxCell id="65TKPUcENDkYGau0bu1g-317" value="" style="curved=1;startArrow=none;;exitX=0.5;exitY=0.99;entryX=0.5;entryY=-0.01;rounded=0;" edge="1" parent="65TKPUcENDkYGau0bu1g-310" source="65TKPUcENDkYGau0bu1g-312" target="65TKPUcENDkYGau0bu1g-313">
          <mxGeometry relative="1" as="geometry">
            <Array as="points" />
          </mxGeometry>
        </mxCell>
        <mxCell id="65TKPUcENDkYGau0bu1g-318" value="" style="curved=1;startArrow=none;;exitX=0.5;exitY=0.99;entryX=0.5;entryY=-0.01;rounded=0;" edge="1" parent="65TKPUcENDkYGau0bu1g-310" source="65TKPUcENDkYGau0bu1g-313" target="65TKPUcENDkYGau0bu1g-314">
          <mxGeometry relative="1" as="geometry">
            <Array as="points" />
          </mxGeometry>
        </mxCell>
        <mxCell id="65TKPUcENDkYGau0bu1g-319" value="" style="curved=1;startArrow=none;;exitX=0.5;exitY=0.99;entryX=0.48;entryY=-0.04;rounded=0;" edge="1" parent="65TKPUcENDkYGau0bu1g-310" source="65TKPUcENDkYGau0bu1g-314" target="65TKPUcENDkYGau0bu1g-315">
          <mxGeometry relative="1" as="geometry">
            <Array as="points" />
          </mxGeometry>
        </mxCell>
        <mxCell id="65TKPUcENDkYGau0bu1g-320" value="MonitoringInventori" style="swimlane;fontStyle=1;align=center;verticalAlign=middle;startSize=25;container=0;collapsible=0;rounded=1;arcSize=14;dropTarget=0;" vertex="1" parent="1">
          <mxGeometry x="2461" y="325" width="2296" height="110" as="geometry" />
        </mxCell>
        <mxCell id="65TKPUcENDkYGau0bu1g-321" value="" style="ellipse;fillColor=strokeColor;" vertex="1" parent="1">
          <mxGeometry x="2635" y="368" width="14" height="14" as="geometry" />
        </mxCell>
        <mxCell id="65TKPUcENDkYGau0bu1g-322" value="PenetapanKPI" style="rounded=1;arcSize=20;strokeWidth=2" vertex="1" parent="1">
          <mxGeometry x="3123" y="818" width="114" height="40" as="geometry" />
        </mxCell>
        <mxCell id="65TKPUcENDkYGau0bu1g-323" value="ManajemenTalenSDM" style="swimlane;fontStyle=1;align=center;verticalAlign=middle;startSize=25;container=0;collapsible=0;rounded=1;arcSize=14;dropTarget=0;" vertex="1" parent="1">
          <mxGeometry x="2012" y="769" width="2745" height="134" as="geometry" />
        </mxCell>
        <mxCell id="65TKPUcENDkYGau0bu1g-324" value="ReviewStok" style="rounded=1;arcSize=20;strokeWidth=2" vertex="1" parent="1">
          <mxGeometry x="3650" y="360" width="97" height="40" as="geometry" />
        </mxCell>
        <mxCell id="65TKPUcENDkYGau0bu1g-325" value="OptimalisasiInventori" style="rounded=1;arcSize=20;strokeWidth=2" vertex="1" parent="1">
          <mxGeometry x="4110" y="360" width="168" height="40" as="geometry" />
        </mxCell>
        <mxCell id="65TKPUcENDkYGau0bu1g-326" value="" style="ellipse;shape=endState;fillColor=strokeColor;" vertex="1" parent="1">
          <mxGeometry x="4636" y="373" width="14" height="14" as="geometry" />
        </mxCell>
        <mxCell id="65TKPUcENDkYGau0bu1g-327" value="" style="ellipse;shape=endState;fillColor=strokeColor;" vertex="1" parent="1">
          <mxGeometry x="3173" y="574" width="14" height="14" as="geometry" />
        </mxCell>
        <mxCell id="65TKPUcENDkYGau0bu1g-328" value="TAHAP 2: TRANSAKSI DAN LAYANAN" style="swimlane;fontStyle=1;align=center;verticalAlign=middle;startSize=25;container=0;collapsible=0;rounded=1;arcSize=14;dropTarget=0;" vertex="1" parent="1">
          <mxGeometry x="1137" y="2349" width="4093" height="944" as="geometry" />
        </mxCell>
        <mxCell id="65TKPUcENDkYGau0bu1g-329" value="" style="ellipse;fillColor=strokeColor;" vertex="1" parent="1">
          <mxGeometry x="1294" y="2642" width="14" height="14" as="geometry" />
        </mxCell>
        <mxCell id="65TKPUcENDkYGau0bu1g-330" value="DesainProsesTransaksi" style="swimlane;fontStyle=1;align=center;verticalAlign=middle;startSize=25;container=0;collapsible=0;rounded=1;arcSize=14;dropTarget=0;verticalAlign=top;" vertex="1" parent="1">
          <mxGeometry x="2491" y="2384" width="301" height="524" as="geometry" />
        </mxCell>
        <mxCell id="65TKPUcENDkYGau0bu1g-331" value="" style="ellipse;fillColor=strokeColor;" vertex="1" parent="65TKPUcENDkYGau0bu1g-330">
          <mxGeometry x="152" y="46" width="14" height="14" as="geometry" />
        </mxCell>
        <mxCell id="65TKPUcENDkYGau0bu1g-332" value="PenentuanMetodePembayaran" style="rounded=1;arcSize=20;strokeWidth=2" vertex="1" parent="65TKPUcENDkYGau0bu1g-330">
          <mxGeometry x="43" y="135" width="231" height="40" as="geometry" />
        </mxCell>
        <mxCell id="65TKPUcENDkYGau0bu1g-333" value="PenetapanAlurTransaksi" style="rounded=1;arcSize=20;strokeWidth=2" vertex="1" parent="65TKPUcENDkYGau0bu1g-330">
          <mxGeometry x="66" y="250" width="185" height="40" as="geometry" />
        </mxCell>
        <mxCell id="65TKPUcENDkYGau0bu1g-334" value="OtorisasiLevel" style="rounded=1;arcSize=20;strokeWidth=2" vertex="1" parent="65TKPUcENDkYGau0bu1g-330">
          <mxGeometry x="100" y="365" width="117" height="40" as="geometry" />
        </mxCell>
        <mxCell id="65TKPUcENDkYGau0bu1g-335" value="" style="ellipse;shape=endState;fillColor=strokeColor;" vertex="1" parent="65TKPUcENDkYGau0bu1g-330">
          <mxGeometry x="152" y="480" width="14" height="14" as="geometry" />
        </mxCell>
        <mxCell id="65TKPUcENDkYGau0bu1g-336" value="" style="curved=1;startArrow=none;;exitX=0.47;exitY=0.96;entryX=0.5;entryY=-0.01;rounded=0;" edge="1" parent="65TKPUcENDkYGau0bu1g-330" source="65TKPUcENDkYGau0bu1g-331" target="65TKPUcENDkYGau0bu1g-332">
          <mxGeometry relative="1" as="geometry">
            <Array as="points" />
          </mxGeometry>
        </mxCell>
        <mxCell id="65TKPUcENDkYGau0bu1g-337" value="" style="curved=1;startArrow=none;;exitX=0.5;exitY=0.99;entryX=0.5;entryY=-0.01;rounded=0;" edge="1" parent="65TKPUcENDkYGau0bu1g-330" source="65TKPUcENDkYGau0bu1g-332" target="65TKPUcENDkYGau0bu1g-333">
          <mxGeometry relative="1" as="geometry">
            <Array as="points" />
          </mxGeometry>
        </mxCell>
        <mxCell id="65TKPUcENDkYGau0bu1g-338" value="" style="curved=1;startArrow=none;;exitX=0.5;exitY=0.99;entryX=0.5;entryY=-0.01;rounded=0;" edge="1" parent="65TKPUcENDkYGau0bu1g-330" source="65TKPUcENDkYGau0bu1g-333" target="65TKPUcENDkYGau0bu1g-334">
          <mxGeometry relative="1" as="geometry">
            <Array as="points" />
          </mxGeometry>
        </mxCell>
        <mxCell id="65TKPUcENDkYGau0bu1g-339" value="" style="curved=1;startArrow=none;;exitX=0.5;exitY=0.99;entryX=0.47;entryY=-0.04;rounded=0;" edge="1" parent="65TKPUcENDkYGau0bu1g-330" source="65TKPUcENDkYGau0bu1g-334" target="65TKPUcENDkYGau0bu1g-335">
          <mxGeometry relative="1" as="geometry">
            <Array as="points" />
          </mxGeometry>
        </mxCell>
        <mxCell id="65TKPUcENDkYGau0bu1g-340" value="PerencanaanLayanan" style="swimlane;fontStyle=1;align=center;verticalAlign=middle;startSize=25;container=0;collapsible=0;rounded=1;arcSize=14;dropTarget=0;verticalAlign=top;" vertex="1" parent="1">
          <mxGeometry x="3034" y="2384" width="290" height="524" as="geometry" />
        </mxCell>
        <mxCell id="65TKPUcENDkYGau0bu1g-341" value="" style="ellipse;fillColor=strokeColor;" vertex="1" parent="65TKPUcENDkYGau0bu1g-340">
          <mxGeometry x="146" y="46" width="14" height="14" as="geometry" />
        </mxCell>
        <mxCell id="65TKPUcENDkYGau0bu1g-342" value="PenentuanStandarLayanan" style="rounded=1;arcSize=20;strokeWidth=2" vertex="1" parent="65TKPUcENDkYGau0bu1g-340">
          <mxGeometry x="51" y="135" width="205" height="40" as="geometry" />
        </mxCell>
        <mxCell id="65TKPUcENDkYGau0bu1g-343" value="DesainPengalamanPelanggan" style="rounded=1;arcSize=20;strokeWidth=2" vertex="1" parent="65TKPUcENDkYGau0bu1g-340">
          <mxGeometry x="43" y="250" width="220" height="40" as="geometry" />
        </mxCell>
        <mxCell id="65TKPUcENDkYGau0bu1g-344" value="PersetujuanSOP" style="rounded=1;arcSize=20;strokeWidth=2" vertex="1" parent="65TKPUcENDkYGau0bu1g-340">
          <mxGeometry x="89" y="365" width="129" height="40" as="geometry" />
        </mxCell>
        <mxCell id="65TKPUcENDkYGau0bu1g-345" value="" style="ellipse;shape=endState;fillColor=strokeColor;" vertex="1" parent="65TKPUcENDkYGau0bu1g-340">
          <mxGeometry x="146" y="480" width="14" height="14" as="geometry" />
        </mxCell>
        <mxCell id="65TKPUcENDkYGau0bu1g-346" value="" style="curved=1;startArrow=none;;exitX=0.51;exitY=0.96;entryX=0.5;entryY=-0.01;rounded=0;" edge="1" parent="65TKPUcENDkYGau0bu1g-340" source="65TKPUcENDkYGau0bu1g-341" target="65TKPUcENDkYGau0bu1g-342">
          <mxGeometry relative="1" as="geometry">
            <Array as="points" />
          </mxGeometry>
        </mxCell>
        <mxCell id="65TKPUcENDkYGau0bu1g-347" value="" style="curved=1;startArrow=none;;exitX=0.5;exitY=0.99;entryX=0.5;entryY=-0.01;rounded=0;" edge="1" parent="65TKPUcENDkYGau0bu1g-340" source="65TKPUcENDkYGau0bu1g-342" target="65TKPUcENDkYGau0bu1g-343">
          <mxGeometry relative="1" as="geometry">
            <Array as="points" />
          </mxGeometry>
        </mxCell>
        <mxCell id="65TKPUcENDkYGau0bu1g-348" value="" style="curved=1;startArrow=none;;exitX=0.5;exitY=0.99;entryX=0.5;entryY=-0.01;rounded=0;" edge="1" parent="65TKPUcENDkYGau0bu1g-340" source="65TKPUcENDkYGau0bu1g-343" target="65TKPUcENDkYGau0bu1g-344">
          <mxGeometry relative="1" as="geometry">
            <Array as="points" />
          </mxGeometry>
        </mxCell>
        <mxCell id="65TKPUcENDkYGau0bu1g-349" value="" style="curved=1;startArrow=none;;exitX=0.5;exitY=0.99;entryX=0.51;entryY=-0.04;rounded=0;" edge="1" parent="65TKPUcENDkYGau0bu1g-340" source="65TKPUcENDkYGau0bu1g-344" target="65TKPUcENDkYGau0bu1g-345">
          <mxGeometry relative="1" as="geometry">
            <Array as="points" />
          </mxGeometry>
        </mxCell>
        <mxCell id="65TKPUcENDkYGau0bu1g-350" value="EvaluasiKepuasan" style="swimlane;fontStyle=1;align=center;verticalAlign=middle;startSize=25;container=0;collapsible=0;rounded=1;arcSize=14;dropTarget=0;" vertex="1" parent="1">
          <mxGeometry x="3517" y="2589" width="1688" height="110" as="geometry" />
        </mxCell>
        <mxCell id="65TKPUcENDkYGau0bu1g-351" value="" style="ellipse;fillColor=strokeColor;" vertex="1" parent="1">
          <mxGeometry x="3691" y="2639" width="14" height="14" as="geometry" />
        </mxCell>
        <mxCell id="65TKPUcENDkYGau0bu1g-352" value="PenentuanMetrik" style="rounded=1;arcSize=20;strokeWidth=2" vertex="1" parent="1">
          <mxGeometry x="4125" y="3441" width="137" height="40" as="geometry" />
        </mxCell>
        <mxCell id="65TKPUcENDkYGau0bu1g-353" value="PemantauanEfektivitas" style="swimlane;fontStyle=1;align=center;verticalAlign=middle;startSize=25;container=0;collapsible=0;rounded=1;arcSize=14;dropTarget=0;" vertex="1" parent="1">
          <mxGeometry x="3517" y="3397" width="1802" height="145" as="geometry" />
        </mxCell>
        <mxCell id="65TKPUcENDkYGau0bu1g-354" value="PengumpulanFeedback" style="rounded=1;arcSize=20;strokeWidth=2" vertex="1" parent="1">
          <mxGeometry x="4553" y="2624" width="179" height="40" as="geometry" />
        </mxCell>
        <mxCell id="65TKPUcENDkYGau0bu1g-355" value="AnalisisFeedback" style="rounded=1;arcSize=20;strokeWidth=2" vertex="1" parent="1">
          <mxGeometry x="4832" y="2624" width="137" height="40" as="geometry" />
        </mxCell>
        <mxCell id="65TKPUcENDkYGau0bu1g-356" value="" style="ellipse;shape=endState;fillColor=strokeColor;" vertex="1" parent="1">
          <mxGeometry x="5093" y="2637" width="14" height="14" as="geometry" />
        </mxCell>
        <mxCell id="65TKPUcENDkYGau0bu1g-357" value="OtorisasiLaporan" style="swimlane;fontStyle=1;align=center;verticalAlign=middle;startSize=25;container=0;collapsible=0;rounded=1;arcSize=14;dropTarget=0;verticalAlign=top;" vertex="1" parent="1">
          <mxGeometry x="4087" y="2734" width="212" height="524" as="geometry" />
        </mxCell>
        <mxCell id="65TKPUcENDkYGau0bu1g-358" value="" style="ellipse;fillColor=strokeColor;" vertex="1" parent="65TKPUcENDkYGau0bu1g-357">
          <mxGeometry x="107" y="46" width="14" height="14" as="geometry" />
        </mxCell>
        <mxCell id="65TKPUcENDkYGau0bu1g-359" value="PenetapanFormat" style="rounded=1;arcSize=20;strokeWidth=2" vertex="1" parent="65TKPUcENDkYGau0bu1g-357">
          <mxGeometry x="43" y="135" width="142" height="40" as="geometry" />
        </mxCell>
        <mxCell id="65TKPUcENDkYGau0bu1g-360" value="JadwalPelaporan" style="rounded=1;arcSize=20;strokeWidth=2" vertex="1" parent="65TKPUcENDkYGau0bu1g-357">
          <mxGeometry x="46" y="250" width="137" height="40" as="geometry" />
        </mxCell>
        <mxCell id="65TKPUcENDkYGau0bu1g-361" value="ValidasiLaporan" style="rounded=1;arcSize=20;strokeWidth=2" vertex="1" parent="65TKPUcENDkYGau0bu1g-357">
          <mxGeometry x="50" y="365" width="128" height="40" as="geometry" />
        </mxCell>
        <mxCell id="65TKPUcENDkYGau0bu1g-362" value="" style="ellipse;shape=endState;fillColor=strokeColor;" vertex="1" parent="65TKPUcENDkYGau0bu1g-357">
          <mxGeometry x="107" y="480" width="14" height="14" as="geometry" />
        </mxCell>
        <mxCell id="65TKPUcENDkYGau0bu1g-363" value="" style="curved=1;startArrow=none;;exitX=0.52;exitY=0.96;entryX=0.5;entryY=-0.01;rounded=0;" edge="1" parent="65TKPUcENDkYGau0bu1g-357" source="65TKPUcENDkYGau0bu1g-358" target="65TKPUcENDkYGau0bu1g-359">
          <mxGeometry relative="1" as="geometry">
            <Array as="points" />
          </mxGeometry>
        </mxCell>
        <mxCell id="65TKPUcENDkYGau0bu1g-364" value="" style="curved=1;startArrow=none;;exitX=0.5;exitY=0.99;entryX=0.5;entryY=-0.01;rounded=0;" edge="1" parent="65TKPUcENDkYGau0bu1g-357" source="65TKPUcENDkYGau0bu1g-359" target="65TKPUcENDkYGau0bu1g-360">
          <mxGeometry relative="1" as="geometry">
            <Array as="points" />
          </mxGeometry>
        </mxCell>
        <mxCell id="65TKPUcENDkYGau0bu1g-365" value="" style="curved=1;startArrow=none;;exitX=0.5;exitY=0.99;entryX=0.5;entryY=-0.01;rounded=0;" edge="1" parent="65TKPUcENDkYGau0bu1g-357" source="65TKPUcENDkYGau0bu1g-360" target="65TKPUcENDkYGau0bu1g-361">
          <mxGeometry relative="1" as="geometry">
            <Array as="points" />
          </mxGeometry>
        </mxCell>
        <mxCell id="65TKPUcENDkYGau0bu1g-366" value="" style="curved=1;startArrow=none;;exitX=0.5;exitY=0.99;entryX=0.52;entryY=-0.04;rounded=0;" edge="1" parent="65TKPUcENDkYGau0bu1g-357" source="65TKPUcENDkYGau0bu1g-361" target="65TKPUcENDkYGau0bu1g-362">
          <mxGeometry relative="1" as="geometry">
            <Array as="points" />
          </mxGeometry>
        </mxCell>
        <mxCell id="65TKPUcENDkYGau0bu1g-367" value="" style="ellipse;shape=endState;fillColor=strokeColor;" vertex="1" parent="1">
          <mxGeometry x="4636" y="2467" width="14" height="14" as="geometry" />
        </mxCell>
        <mxCell id="65TKPUcENDkYGau0bu1g-368" value="TAHAP 3: MANAJEMEN OPERASIONAL" style="swimlane;fontStyle=1;align=center;verticalAlign=middle;startSize=25;container=0;collapsible=0;rounded=1;arcSize=14;dropTarget=0;" vertex="1" parent="1">
          <mxGeometry x="1587" y="749" width="3196" height="1580" as="geometry" />
        </mxCell>
        <mxCell id="65TKPUcENDkYGau0bu1g-369" value="" style="ellipse;fillColor=strokeColor;" vertex="1" parent="1">
          <mxGeometry x="1719" y="1699" width="14" height="14" as="geometry" />
        </mxCell>
        <mxCell id="65TKPUcENDkYGau0bu1g-370" value="PerencanaanKeamanan" style="swimlane;fontStyle=1;align=center;verticalAlign=middle;startSize=25;container=0;collapsible=0;rounded=1;arcSize=14;dropTarget=0;" vertex="1" parent="1">
          <mxGeometry x="2012" y="1612" width="2745" height="123" as="geometry" />
        </mxCell>
        <mxCell id="65TKPUcENDkYGau0bu1g-371" value="" style="ellipse;fillColor=strokeColor;" vertex="1" parent="1">
          <mxGeometry x="2141" y="1668" width="14" height="14" as="geometry" />
        </mxCell>
        <mxCell id="65TKPUcENDkYGau0bu1g-372" value="PenilaianRisiko" style="rounded=1;arcSize=20;strokeWidth=2" vertex="1" parent="1">
          <mxGeometry x="2581" y="1647" width="123" height="40" as="geometry" />
        </mxCell>
        <mxCell id="65TKPUcENDkYGau0bu1g-373" value="AlokasiBudget" style="rounded=1;arcSize=20;strokeWidth=2" vertex="1" parent="1">
          <mxGeometry x="3122" y="3596" width="116" height="40" as="geometry" />
        </mxCell>
        <mxCell id="65TKPUcENDkYGau0bu1g-374" value="PerencanaanStrategis" style="swimlane;fontStyle=1;align=center;verticalAlign=middle;startSize=25;container=0;collapsible=0;rounded=1;arcSize=14;dropTarget=0;" vertex="1" parent="1">
          <mxGeometry x="1162" y="3561" width="2717" height="124" as="geometry" />
        </mxCell>
        <mxCell id="65TKPUcENDkYGau0bu1g-375" value="ImplementasiSistem" style="rounded=1;arcSize=20;strokeWidth=2" vertex="1" parent="1">
          <mxGeometry x="3618" y="1651" width="160" height="40" as="geometry" />
        </mxCell>
        <mxCell id="65TKPUcENDkYGau0bu1g-376" value="AuditKeamanan" style="rounded=1;arcSize=20;strokeWidth=2" vertex="1" parent="1">
          <mxGeometry x="4130" y="1651" width="127" height="40" as="geometry" />
        </mxCell>
        <mxCell id="65TKPUcENDkYGau0bu1g-377" value="" style="ellipse;shape=endState;fillColor=strokeColor;" vertex="1" parent="1">
          <mxGeometry x="4636" y="1664" width="14" height="14" as="geometry" />
        </mxCell>
        <mxCell id="65TKPUcENDkYGau0bu1g-378" value="TataKelolaAdministrasi" style="swimlane;fontStyle=1;align=center;verticalAlign=middle;startSize=25;container=0;collapsible=0;rounded=1;arcSize=14;dropTarget=0;verticalAlign=top;" vertex="1" parent="1">
          <mxGeometry x="2486" y="1770" width="311" height="524" as="geometry" />
        </mxCell>
        <mxCell id="65TKPUcENDkYGau0bu1g-379" value="" style="ellipse;fillColor=strokeColor;" vertex="1" parent="65TKPUcENDkYGau0bu1g-378">
          <mxGeometry x="157" y="46" width="14" height="14" as="geometry" />
        </mxCell>
        <mxCell id="65TKPUcENDkYGau0bu1g-380" value="DesainStrukturOrganisasi" style="rounded=1;arcSize=20;strokeWidth=2" vertex="1" parent="65TKPUcENDkYGau0bu1g-378">
          <mxGeometry x="67" y="135" width="194" height="40" as="geometry" />
        </mxCell>
        <mxCell id="65TKPUcENDkYGau0bu1g-381" value="PenetapanProsedurAdministrasi" style="rounded=1;arcSize=20;strokeWidth=2" vertex="1" parent="65TKPUcENDkYGau0bu1g-378">
          <mxGeometry x="43" y="250" width="241" height="40" as="geometry" />
        </mxCell>
        <mxCell id="65TKPUcENDkYGau0bu1g-382" value="AlokasiFungsi" style="rounded=1;arcSize=20;strokeWidth=2" vertex="1" parent="65TKPUcENDkYGau0bu1g-378">
          <mxGeometry x="108" y="365" width="111" height="40" as="geometry" />
        </mxCell>
        <mxCell id="65TKPUcENDkYGau0bu1g-383" value="" style="ellipse;shape=endState;fillColor=strokeColor;" vertex="1" parent="65TKPUcENDkYGau0bu1g-378">
          <mxGeometry x="157" y="480" width="14" height="14" as="geometry" />
        </mxCell>
        <mxCell id="65TKPUcENDkYGau0bu1g-384" value="" style="curved=1;startArrow=none;;exitX=0.47;exitY=0.96;entryX=0.5;entryY=-0.01;rounded=0;" edge="1" parent="65TKPUcENDkYGau0bu1g-378" source="65TKPUcENDkYGau0bu1g-379" target="65TKPUcENDkYGau0bu1g-380">
          <mxGeometry relative="1" as="geometry">
            <Array as="points" />
          </mxGeometry>
        </mxCell>
        <mxCell id="65TKPUcENDkYGau0bu1g-385" value="" style="curved=1;startArrow=none;;exitX=0.5;exitY=0.99;entryX=0.5;entryY=-0.01;rounded=0;" edge="1" parent="65TKPUcENDkYGau0bu1g-378" source="65TKPUcENDkYGau0bu1g-380" target="65TKPUcENDkYGau0bu1g-381">
          <mxGeometry relative="1" as="geometry">
            <Array as="points" />
          </mxGeometry>
        </mxCell>
        <mxCell id="65TKPUcENDkYGau0bu1g-386" value="" style="curved=1;startArrow=none;;exitX=0.5;exitY=0.99;entryX=0.5;entryY=-0.01;rounded=0;" edge="1" parent="65TKPUcENDkYGau0bu1g-378" source="65TKPUcENDkYGau0bu1g-381" target="65TKPUcENDkYGau0bu1g-382">
          <mxGeometry relative="1" as="geometry">
            <Array as="points" />
          </mxGeometry>
        </mxCell>
        <mxCell id="65TKPUcENDkYGau0bu1g-387" value="" style="curved=1;startArrow=none;;exitX=0.5;exitY=0.99;entryX=0.47;entryY=-0.04;rounded=0;" edge="1" parent="65TKPUcENDkYGau0bu1g-378" source="65TKPUcENDkYGau0bu1g-382" target="65TKPUcENDkYGau0bu1g-383">
          <mxGeometry relative="1" as="geometry">
            <Array as="points" />
          </mxGeometry>
        </mxCell>
        <mxCell id="65TKPUcENDkYGau0bu1g-388" value="" style="ellipse;fillColor=strokeColor;" vertex="1" parent="1">
          <mxGeometry x="2141" y="817" width="14" height="14" as="geometry" />
        </mxCell>
        <mxCell id="65TKPUcENDkYGau0bu1g-389" value="PerencanaanTenagaKerja" style="rounded=1;arcSize=20;strokeWidth=2" vertex="1" parent="1">
          <mxGeometry x="2545" y="804" width="195" height="40" as="geometry" />
        </mxCell>
        <mxCell id="65TKPUcENDkYGau0bu1g-390" value="SistemPenghargaan" style="rounded=1;arcSize=20;strokeWidth=2" vertex="1" parent="1">
          <mxGeometry x="3621" y="820" width="154" height="40" as="geometry" />
        </mxCell>
        <mxCell id="65TKPUcENDkYGau0bu1g-391" value="PengembanganKarir" style="rounded=1;arcSize=20;strokeWidth=2" vertex="1" parent="1">
          <mxGeometry x="4115" y="820" width="158" height="40" as="geometry" />
        </mxCell>
        <mxCell id="65TKPUcENDkYGau0bu1g-392" value="" style="ellipse;shape=endState;fillColor=strokeColor;" vertex="1" parent="1">
          <mxGeometry x="4636" y="833" width="14" height="14" as="geometry" />
        </mxCell>
        <mxCell id="65TKPUcENDkYGau0bu1g-393" value="PengelolaanInfrastruktur" style="swimlane;fontStyle=1;align=center;verticalAlign=middle;startSize=25;container=0;collapsible=0;rounded=1;arcSize=14;dropTarget=0;verticalAlign=top;" vertex="1" parent="1">
          <mxGeometry x="3542" y="938" width="313" height="639" as="geometry" />
        </mxCell>
        <mxCell id="65TKPUcENDkYGau0bu1g-394" value="" style="ellipse;fillColor=strokeColor;" vertex="1" parent="65TKPUcENDkYGau0bu1g-393">
          <mxGeometry x="157" y="46" width="14" height="14" as="geometry" />
        </mxCell>
        <mxCell id="65TKPUcENDkYGau0bu1g-395" value="PenilaianKebutuhan" style="rounded=1;arcSize=20;strokeWidth=2" vertex="1" parent="65TKPUcENDkYGau0bu1g-393">
          <mxGeometry x="86" y="135" width="157" height="40" as="geometry" />
        </mxCell>
        <mxCell id="65TKPUcENDkYGau0bu1g-396" value="AlokasiBudgetFasilitas" style="rounded=1;arcSize=20;strokeWidth=2" vertex="1" parent="65TKPUcENDkYGau0bu1g-393">
          <mxGeometry x="77" y="250" width="174" height="40" as="geometry" />
        </mxCell>
        <mxCell id="65TKPUcENDkYGau0bu1g-397" value="PerencanaanPemeliharaan" style="rounded=1;arcSize=20;strokeWidth=2" vertex="1" parent="65TKPUcENDkYGau0bu1g-393">
          <mxGeometry x="62" y="365" width="204" height="40" as="geometry" />
        </mxCell>
        <mxCell id="65TKPUcENDkYGau0bu1g-398" value="PengambilanKeputusanInvestasi" style="rounded=1;arcSize=20;strokeWidth=2" vertex="1" parent="65TKPUcENDkYGau0bu1g-393">
          <mxGeometry x="43" y="480" width="243" height="40" as="geometry" />
        </mxCell>
        <mxCell id="65TKPUcENDkYGau0bu1g-399" value="" style="ellipse;shape=endState;fillColor=strokeColor;" vertex="1" parent="65TKPUcENDkYGau0bu1g-393">
          <mxGeometry x="157" y="595" width="14" height="14" as="geometry" />
        </mxCell>
        <mxCell id="65TKPUcENDkYGau0bu1g-400" value="" style="curved=1;startArrow=none;;exitX=0.52;exitY=0.96;entryX=0.5;entryY=-0.01;rounded=0;" edge="1" parent="65TKPUcENDkYGau0bu1g-393" source="65TKPUcENDkYGau0bu1g-394" target="65TKPUcENDkYGau0bu1g-395">
          <mxGeometry relative="1" as="geometry">
            <Array as="points" />
          </mxGeometry>
        </mxCell>
        <mxCell id="65TKPUcENDkYGau0bu1g-401" value="" style="curved=1;startArrow=none;;exitX=0.5;exitY=0.99;entryX=0.5;entryY=-0.01;rounded=0;" edge="1" parent="65TKPUcENDkYGau0bu1g-393" source="65TKPUcENDkYGau0bu1g-395" target="65TKPUcENDkYGau0bu1g-396">
          <mxGeometry relative="1" as="geometry">
            <Array as="points" />
          </mxGeometry>
        </mxCell>
        <mxCell id="65TKPUcENDkYGau0bu1g-402" value="" style="curved=1;startArrow=none;;exitX=0.5;exitY=0.99;entryX=0.5;entryY=-0.01;rounded=0;" edge="1" parent="65TKPUcENDkYGau0bu1g-393" source="65TKPUcENDkYGau0bu1g-396" target="65TKPUcENDkYGau0bu1g-397">
          <mxGeometry relative="1" as="geometry">
            <Array as="points" />
          </mxGeometry>
        </mxCell>
        <mxCell id="65TKPUcENDkYGau0bu1g-403" value="" style="curved=1;startArrow=none;;exitX=0.5;exitY=0.99;entryX=0.5;entryY=-0.01;rounded=0;" edge="1" parent="65TKPUcENDkYGau0bu1g-393" source="65TKPUcENDkYGau0bu1g-397" target="65TKPUcENDkYGau0bu1g-398">
          <mxGeometry relative="1" as="geometry">
            <Array as="points" />
          </mxGeometry>
        </mxCell>
        <mxCell id="65TKPUcENDkYGau0bu1g-404" value="" style="curved=1;startArrow=none;;exitX=0.5;exitY=0.99;entryX=0.52;entryY=-0.04;rounded=0;" edge="1" parent="65TKPUcENDkYGau0bu1g-393" source="65TKPUcENDkYGau0bu1g-398" target="65TKPUcENDkYGau0bu1g-399">
          <mxGeometry relative="1" as="geometry">
            <Array as="points" />
          </mxGeometry>
        </mxCell>
        <mxCell id="65TKPUcENDkYGau0bu1g-405" value="" style="ellipse;shape=endState;fillColor=strokeColor;" vertex="1" parent="1">
          <mxGeometry x="4187" y="1250" width="14" height="14" as="geometry" />
        </mxCell>
        <mxCell id="65TKPUcENDkYGau0bu1g-406" value="TAHAP 4: STRATEGIS PEMASARAN" style="swimlane;fontStyle=1;align=center;verticalAlign=middle;startSize=25;container=0;collapsible=0;rounded=1;arcSize=14;dropTarget=0;" vertex="1" parent="1">
          <mxGeometry x="1137" y="3377" width="4207" height="1018" as="geometry" />
        </mxCell>
        <mxCell id="65TKPUcENDkYGau0bu1g-407" value="" style="ellipse;fillColor=strokeColor;" vertex="1" parent="1">
          <mxGeometry x="2635" y="3457" width="14" height="14" as="geometry" />
        </mxCell>
        <mxCell id="65TKPUcENDkYGau0bu1g-408" value="" style="ellipse;fillColor=strokeColor;" vertex="1" parent="1">
          <mxGeometry x="1294" y="3623" width="14" height="14" as="geometry" />
        </mxCell>
        <mxCell id="65TKPUcENDkYGau0bu1g-409" value="AnalisaPasar" style="rounded=1;arcSize=20;strokeWidth=2" vertex="1" parent="1">
          <mxGeometry x="1674" y="3610" width="104" height="40" as="geometry" />
        </mxCell>
        <mxCell id="65TKPUcENDkYGau0bu1g-410" value="IdentifikasiTarget" style="rounded=1;arcSize=20;strokeWidth=2" vertex="1" parent="1">
          <mxGeometry x="2077" y="3610" width="141" height="40" as="geometry" />
        </mxCell>
        <mxCell id="65TKPUcENDkYGau0bu1g-411" value="PenetapanTujuan" style="rounded=1;arcSize=20;strokeWidth=2" vertex="1" parent="1">
          <mxGeometry x="2573" y="3610" width="139" height="40" as="geometry" />
        </mxCell>
        <mxCell id="65TKPUcENDkYGau0bu1g-412" value="" style="ellipse;shape=endState;fillColor=strokeColor;" vertex="1" parent="1">
          <mxGeometry x="3691" y="3609" width="14" height="14" as="geometry" />
        </mxCell>
        <mxCell id="65TKPUcENDkYGau0bu1g-413" value="PersetujuanKampanye" style="swimlane;fontStyle=1;align=center;verticalAlign=middle;startSize=25;container=0;collapsible=0;rounded=1;arcSize=14;dropTarget=0;verticalAlign=top;" vertex="1" parent="1">
          <mxGeometry x="3591" y="3720" width="214" height="639" as="geometry" />
        </mxCell>
        <mxCell id="65TKPUcENDkYGau0bu1g-414" value="" style="ellipse;fillColor=strokeColor;" vertex="1" parent="65TKPUcENDkYGau0bu1g-413">
          <mxGeometry x="108" y="46" width="14" height="14" as="geometry" />
        </mxCell>
        <mxCell id="65TKPUcENDkYGau0bu1g-415" value="ReviewProposal" style="rounded=1;arcSize=20;strokeWidth=2" vertex="1" parent="65TKPUcENDkYGau0bu1g-413">
          <mxGeometry x="52" y="135" width="127" height="40" as="geometry" />
        </mxCell>
        <mxCell id="65TKPUcENDkYGau0bu1g-416" value="EvaluasiROI" style="rounded=1;arcSize=20;strokeWidth=2" vertex="1" parent="65TKPUcENDkYGau0bu1g-413">
          <mxGeometry x="66" y="250" width="98" height="40" as="geometry" />
        </mxCell>
        <mxCell id="65TKPUcENDkYGau0bu1g-417" value="PenyesuaianPesan" style="rounded=1;arcSize=20;strokeWidth=2" vertex="1" parent="65TKPUcENDkYGau0bu1g-413">
          <mxGeometry x="43" y="365" width="144" height="40" as="geometry" />
        </mxCell>
        <mxCell id="65TKPUcENDkYGau0bu1g-418" value="PersetujuanFinal" style="rounded=1;arcSize=20;strokeWidth=2" vertex="1" parent="65TKPUcENDkYGau0bu1g-413">
          <mxGeometry x="47" y="480" width="136" height="40" as="geometry" />
        </mxCell>
        <mxCell id="65TKPUcENDkYGau0bu1g-419" value="" style="ellipse;shape=endState;fillColor=strokeColor;" vertex="1" parent="65TKPUcENDkYGau0bu1g-413">
          <mxGeometry x="108" y="595" width="14" height="14" as="geometry" />
        </mxCell>
        <mxCell id="65TKPUcENDkYGau0bu1g-420" value="" style="curved=1;startArrow=none;;exitX=0.5;exitY=0.96;entryX=0.5;entryY=-0.01;rounded=0;" edge="1" parent="65TKPUcENDkYGau0bu1g-413" source="65TKPUcENDkYGau0bu1g-414" target="65TKPUcENDkYGau0bu1g-415">
          <mxGeometry relative="1" as="geometry">
            <Array as="points" />
          </mxGeometry>
        </mxCell>
        <mxCell id="65TKPUcENDkYGau0bu1g-421" value="" style="curved=1;startArrow=none;;exitX=0.5;exitY=0.99;entryX=0.5;entryY=-0.01;rounded=0;" edge="1" parent="65TKPUcENDkYGau0bu1g-413" source="65TKPUcENDkYGau0bu1g-415" target="65TKPUcENDkYGau0bu1g-416">
          <mxGeometry relative="1" as="geometry">
            <Array as="points" />
          </mxGeometry>
        </mxCell>
        <mxCell id="65TKPUcENDkYGau0bu1g-422" value="" style="curved=1;startArrow=none;;exitX=0.5;exitY=0.99;entryX=0.5;entryY=-0.01;rounded=0;" edge="1" parent="65TKPUcENDkYGau0bu1g-413" source="65TKPUcENDkYGau0bu1g-416" target="65TKPUcENDkYGau0bu1g-417">
          <mxGeometry relative="1" as="geometry">
            <Array as="points" />
          </mxGeometry>
        </mxCell>
        <mxCell id="65TKPUcENDkYGau0bu1g-423" value="" style="curved=1;startArrow=none;;exitX=0.5;exitY=0.99;entryX=0.5;entryY=-0.01;rounded=0;" edge="1" parent="65TKPUcENDkYGau0bu1g-413" source="65TKPUcENDkYGau0bu1g-417" target="65TKPUcENDkYGau0bu1g-418">
          <mxGeometry relative="1" as="geometry">
            <Array as="points" />
          </mxGeometry>
        </mxCell>
        <mxCell id="65TKPUcENDkYGau0bu1g-424" value="" style="curved=1;startArrow=none;;exitX=0.5;exitY=0.99;entryX=0.5;entryY=-0.04;rounded=0;" edge="1" parent="65TKPUcENDkYGau0bu1g-413" source="65TKPUcENDkYGau0bu1g-418" target="65TKPUcENDkYGau0bu1g-419">
          <mxGeometry relative="1" as="geometry">
            <Array as="points" />
          </mxGeometry>
        </mxCell>
        <mxCell id="65TKPUcENDkYGau0bu1g-425" value="" style="ellipse;fillColor=strokeColor;" vertex="1" parent="1">
          <mxGeometry x="3691" y="3447" width="14" height="14" as="geometry" />
        </mxCell>
        <mxCell id="65TKPUcENDkYGau0bu1g-426" value="PengumpulanData" style="rounded=1;arcSize=20;strokeWidth=2" vertex="1" parent="1">
          <mxGeometry x="4571" y="3441" width="144" height="40" as="geometry" />
        </mxCell>
        <mxCell id="65TKPUcENDkYGau0bu1g-427" value="AnalisisPerforma" style="rounded=1;arcSize=20;strokeWidth=2" vertex="1" parent="1">
          <mxGeometry x="4834" y="3441" width="135" height="40" as="geometry" />
        </mxCell>
        <mxCell id="65TKPUcENDkYGau0bu1g-428" value="PenyesuaianStrategi" style="rounded=1;arcSize=20;strokeWidth=2" vertex="1" parent="1">
          <mxGeometry x="5020" y="3441" width="160" height="40" as="geometry" />
        </mxCell>
        <mxCell id="65TKPUcENDkYGau0bu1g-429" value="" style="ellipse;shape=endState;fillColor=strokeColor;" vertex="1" parent="1">
          <mxGeometry x="5280" y="3454" width="14" height="14" as="geometry" />
        </mxCell>
        <mxCell id="65TKPUcENDkYGau0bu1g-430" value="" style="ellipse;shape=endState;fillColor=strokeColor;" vertex="1" parent="1">
          <mxGeometry x="4636" y="3964" width="14" height="14" as="geometry" />
        </mxCell>
        <mxCell id="65TKPUcENDkYGau0bu1g-431" value="" style="ellipse;fillColor=strokeColor;" vertex="1" parent="1">
          <mxGeometry x="20" y="395" width="14" height="14" as="geometry" />
        </mxCell>
        <mxCell id="65TKPUcENDkYGau0bu1g-432" value="" style="ellipse;shape=endState;fillColor=strokeColor;" vertex="1" parent="1">
          <mxGeometry x="3173" y="3328" width="14" height="14" as="geometry" />
        </mxCell>
        <mxCell id="65TKPUcENDkYGau0bu1g-433" value="" style="curved=1;startArrow=none;;exitX=1;exitY=0.09;entryX=0;entryY=0.49;rounded=0;" edge="1" parent="1" source="65TKPUcENDkYGau0bu1g-276" target="65TKPUcENDkYGau0bu1g-277">
          <mxGeometry relative="1" as="geometry">
            <Array as="points">
              <mxPoint x="148" y="375" />
            </Array>
          </mxGeometry>
        </mxCell>
        <mxCell id="65TKPUcENDkYGau0bu1g-434" value="" style="curved=1;startArrow=none;;exitX=1;exitY=0.44;entryX=0.4;entryY=-0.01;rounded=0;" edge="1" parent="1" source="65TKPUcENDkYGau0bu1g-321" target="65TKPUcENDkYGau0bu1g-322">
          <mxGeometry relative="1" as="geometry">
            <Array as="points">
              <mxPoint x="2916" y="359" />
            </Array>
          </mxGeometry>
        </mxCell>
        <mxCell id="65TKPUcENDkYGau0bu1g-435" value="" style="curved=1;startArrow=none;;exitX=1;exitY=0.25;entryX=0.41;entryY=1.01;rounded=0;" edge="1" parent="1" source="65TKPUcENDkYGau0bu1g-322" target="65TKPUcENDkYGau0bu1g-324">
          <mxGeometry relative="1" as="geometry">
            <Array as="points">
              <mxPoint x="3421" y="797" />
              <mxPoint x="3517" y="797" />
            </Array>
          </mxGeometry>
        </mxCell>
        <mxCell id="65TKPUcENDkYGau0bu1g-436" value="" style="curved=1;startArrow=none;;exitX=1;exitY=0.51;entryX=0;entryY=0.51;rounded=0;" edge="1" parent="1" source="65TKPUcENDkYGau0bu1g-324" target="65TKPUcENDkYGau0bu1g-325">
          <mxGeometry relative="1" as="geometry">
            <Array as="points" />
          </mxGeometry>
        </mxCell>
        <mxCell id="65TKPUcENDkYGau0bu1g-437" value="" style="curved=1;startArrow=none;;exitX=1;exitY=0.51;entryX=-0.02;entryY=0.52;rounded=0;" edge="1" parent="1" source="65TKPUcENDkYGau0bu1g-325" target="65TKPUcENDkYGau0bu1g-326">
          <mxGeometry relative="1" as="geometry">
            <Array as="points" />
          </mxGeometry>
        </mxCell>
        <mxCell id="65TKPUcENDkYGau0bu1g-438" value="" style="curved=1;startArrow=none;;exitX=1.02;exitY=0.43;entryX=0.46;entryY=-0.01;rounded=0;" edge="1" parent="1" source="65TKPUcENDkYGau0bu1g-351" target="65TKPUcENDkYGau0bu1g-352">
          <mxGeometry relative="1" as="geometry">
            <Array as="points">
              <mxPoint x="3879" y="2622" />
              <mxPoint x="3983" y="2622" />
            </Array>
          </mxGeometry>
        </mxCell>
        <mxCell id="65TKPUcENDkYGau0bu1g-439" value="" style="curved=1;startArrow=none;;exitX=1;exitY=0.22;entryX=0.47;entryY=0.99;rounded=0;" edge="1" parent="1" source="65TKPUcENDkYGau0bu1g-352" target="65TKPUcENDkYGau0bu1g-354">
          <mxGeometry relative="1" as="geometry">
            <Array as="points">
              <mxPoint x="4426" y="3424" />
            </Array>
          </mxGeometry>
        </mxCell>
        <mxCell id="65TKPUcENDkYGau0bu1g-440" value="" style="curved=1;startArrow=none;;exitX=1;exitY=0.49;entryX=0;entryY=0.49;rounded=0;" edge="1" parent="1" source="65TKPUcENDkYGau0bu1g-354" target="65TKPUcENDkYGau0bu1g-355">
          <mxGeometry relative="1" as="geometry">
            <Array as="points" />
          </mxGeometry>
        </mxCell>
        <mxCell id="65TKPUcENDkYGau0bu1g-441" value="" style="curved=1;startArrow=none;;exitX=1.01;exitY=0.49;entryX=-0.01;entryY=0.46;rounded=0;" edge="1" parent="1" source="65TKPUcENDkYGau0bu1g-355" target="65TKPUcENDkYGau0bu1g-356">
          <mxGeometry relative="1" as="geometry">
            <Array as="points" />
          </mxGeometry>
        </mxCell>
        <mxCell id="65TKPUcENDkYGau0bu1g-442" value="" style="curved=1;startArrow=none;;exitX=0.99;exitY=0.49;entryX=0;entryY=0.49;rounded=0;" edge="1" parent="1" source="65TKPUcENDkYGau0bu1g-371" target="65TKPUcENDkYGau0bu1g-372">
          <mxGeometry relative="1" as="geometry">
            <Array as="points">
              <mxPoint x="2360" y="1667" />
            </Array>
          </mxGeometry>
        </mxCell>
        <mxCell id="65TKPUcENDkYGau0bu1g-443" value="" style="curved=1;startArrow=none;;exitX=0.99;exitY=0.49;entryX=0.47;entryY=0.01;rounded=0;" edge="1" parent="1" source="65TKPUcENDkYGau0bu1g-372" target="65TKPUcENDkYGau0bu1g-373">
          <mxGeometry relative="1" as="geometry">
            <Array as="points">
              <mxPoint x="2916" y="1667" />
            </Array>
          </mxGeometry>
        </mxCell>
        <mxCell id="65TKPUcENDkYGau0bu1g-444" value="" style="curved=1;startArrow=none;;exitX=1;exitY=0.34;entryX=0.49;entryY=0.99;rounded=0;" edge="1" parent="1" source="65TKPUcENDkYGau0bu1g-373" target="65TKPUcENDkYGau0bu1g-375">
          <mxGeometry relative="1" as="geometry">
            <Array as="points">
              <mxPoint x="3421" y="3589" />
              <mxPoint x="3517" y="3589" />
            </Array>
          </mxGeometry>
        </mxCell>
        <mxCell id="65TKPUcENDkYGau0bu1g-445" value="" style="curved=1;startArrow=none;;exitX=1;exitY=0.49;entryX=0;entryY=0.49;rounded=0;" edge="1" parent="1" source="65TKPUcENDkYGau0bu1g-375" target="65TKPUcENDkYGau0bu1g-376">
          <mxGeometry relative="1" as="geometry">
            <Array as="points" />
          </mxGeometry>
        </mxCell>
        <mxCell id="65TKPUcENDkYGau0bu1g-446" value="" style="curved=1;startArrow=none;;exitX=1;exitY=0.49;entryX=-0.02;entryY=0.48;rounded=0;" edge="1" parent="1" source="65TKPUcENDkYGau0bu1g-376" target="65TKPUcENDkYGau0bu1g-377">
          <mxGeometry relative="1" as="geometry">
            <Array as="points" />
          </mxGeometry>
        </mxCell>
        <mxCell id="65TKPUcENDkYGau0bu1g-447" value="" style="curved=1;startArrow=none;;exitX=0.99;exitY=0.5;entryX=0;entryY=0.5;rounded=0;" edge="1" parent="1" source="65TKPUcENDkYGau0bu1g-388" target="65TKPUcENDkYGau0bu1g-389">
          <mxGeometry relative="1" as="geometry">
            <Array as="points" />
          </mxGeometry>
        </mxCell>
        <mxCell id="65TKPUcENDkYGau0bu1g-448" value="" style="curved=1;startArrow=none;;exitX=1;exitY=0.5;entryX=0;entryY=0.42;rounded=0;" edge="1" parent="1" source="65TKPUcENDkYGau0bu1g-389" target="65TKPUcENDkYGau0bu1g-322">
          <mxGeometry relative="1" as="geometry">
            <Array as="points">
              <mxPoint x="2916" y="824" />
            </Array>
          </mxGeometry>
        </mxCell>
        <mxCell id="65TKPUcENDkYGau0bu1g-449" value="" style="curved=1;startArrow=none;;exitX=1;exitY=0.51;entryX=0;entryY=0.49;rounded=0;" edge="1" parent="1" source="65TKPUcENDkYGau0bu1g-322" target="65TKPUcENDkYGau0bu1g-390">
          <mxGeometry relative="1" as="geometry">
            <Array as="points">
              <mxPoint x="3421" y="840" />
            </Array>
          </mxGeometry>
        </mxCell>
        <mxCell id="65TKPUcENDkYGau0bu1g-450" value="" style="curved=1;startArrow=none;;exitX=1;exitY=0.49;entryX=0;entryY=0.49;rounded=0;" edge="1" parent="1" source="65TKPUcENDkYGau0bu1g-390" target="65TKPUcENDkYGau0bu1g-391">
          <mxGeometry relative="1" as="geometry">
            <Array as="points" />
          </mxGeometry>
        </mxCell>
        <mxCell id="65TKPUcENDkYGau0bu1g-451" value="" style="curved=1;startArrow=none;;exitX=1;exitY=0.49;entryX=-0.02;entryY=0.48;rounded=0;" edge="1" parent="1" source="65TKPUcENDkYGau0bu1g-391" target="65TKPUcENDkYGau0bu1g-392">
          <mxGeometry relative="1" as="geometry">
            <Array as="points" />
          </mxGeometry>
        </mxCell>
        <mxCell id="65TKPUcENDkYGau0bu1g-452" value="" style="curved=1;startArrow=none;;exitX=0.97;exitY=0.52;entryX=0;entryY=0.51;rounded=0;" edge="1" parent="1" source="65TKPUcENDkYGau0bu1g-408" target="65TKPUcENDkYGau0bu1g-409">
          <mxGeometry relative="1" as="geometry">
            <Array as="points" />
          </mxGeometry>
        </mxCell>
        <mxCell id="65TKPUcENDkYGau0bu1g-453" value="" style="curved=1;startArrow=none;;exitX=1.01;exitY=0.51;entryX=0;entryY=0.51;rounded=0;" edge="1" parent="1" source="65TKPUcENDkYGau0bu1g-409" target="65TKPUcENDkYGau0bu1g-410">
          <mxGeometry relative="1" as="geometry">
            <Array as="points" />
          </mxGeometry>
        </mxCell>
        <mxCell id="65TKPUcENDkYGau0bu1g-454" value="" style="curved=1;startArrow=none;;exitX=1;exitY=0.51;entryX=0;entryY=0.51;rounded=0;" edge="1" parent="1" source="65TKPUcENDkYGau0bu1g-410" target="65TKPUcENDkYGau0bu1g-411">
          <mxGeometry relative="1" as="geometry">
            <Array as="points" />
          </mxGeometry>
        </mxCell>
        <mxCell id="65TKPUcENDkYGau0bu1g-455" value="" style="curved=1;startArrow=none;;exitX=1;exitY=0.51;entryX=0;entryY=0.59;rounded=0;" edge="1" parent="1" source="65TKPUcENDkYGau0bu1g-411" target="65TKPUcENDkYGau0bu1g-373">
          <mxGeometry relative="1" as="geometry">
            <Array as="points">
              <mxPoint x="2916" y="3630" />
            </Array>
          </mxGeometry>
        </mxCell>
        <mxCell id="65TKPUcENDkYGau0bu1g-456" value="" style="curved=1;startArrow=none;;exitX=1;exitY=0.51;entryX=0.02;entryY=0.52;rounded=0;" edge="1" parent="1" source="65TKPUcENDkYGau0bu1g-373" target="65TKPUcENDkYGau0bu1g-412">
          <mxGeometry relative="1" as="geometry">
            <Array as="points" />
          </mxGeometry>
        </mxCell>
        <mxCell id="65TKPUcENDkYGau0bu1g-457" value="" style="curved=1;startArrow=none;;exitX=1.02;exitY=0.52;entryX=0;entryY=0.44;rounded=0;" edge="1" parent="1" source="65TKPUcENDkYGau0bu1g-425" target="65TKPUcENDkYGau0bu1g-352">
          <mxGeometry relative="1" as="geometry">
            <Array as="points">
              <mxPoint x="3983" y="3454" />
            </Array>
          </mxGeometry>
        </mxCell>
        <mxCell id="65TKPUcENDkYGau0bu1g-458" value="" style="curved=1;startArrow=none;;exitX=1;exitY=0.49;entryX=0;entryY=0.49;rounded=0;" edge="1" parent="1" source="65TKPUcENDkYGau0bu1g-352" target="65TKPUcENDkYGau0bu1g-426">
          <mxGeometry relative="1" as="geometry">
            <Array as="points" />
          </mxGeometry>
        </mxCell>
        <mxCell id="65TKPUcENDkYGau0bu1g-459" value="" style="curved=1;startArrow=none;;exitX=1;exitY=0.49;entryX=0;entryY=0.49;rounded=0;" edge="1" parent="1" source="65TKPUcENDkYGau0bu1g-426" target="65TKPUcENDkYGau0bu1g-427">
          <mxGeometry relative="1" as="geometry">
            <Array as="points" />
          </mxGeometry>
        </mxCell>
        <mxCell id="65TKPUcENDkYGau0bu1g-460" value="" style="curved=1;startArrow=none;;exitX=1;exitY=0.49;entryX=0;entryY=0.49;rounded=0;" edge="1" parent="1" source="65TKPUcENDkYGau0bu1g-427" target="65TKPUcENDkYGau0bu1g-428">
          <mxGeometry relative="1" as="geometry">
            <Array as="points" />
          </mxGeometry>
        </mxCell>
        <mxCell id="65TKPUcENDkYGau0bu1g-461" value="" style="curved=1;startArrow=none;;exitX=1;exitY=0.49;entryX=-0.01;entryY=0.48;rounded=0;" edge="1" parent="1" source="65TKPUcENDkYGau0bu1g-428" target="65TKPUcENDkYGau0bu1g-429">
          <mxGeometry relative="1" as="geometry">
            <Array as="points" />
          </mxGeometry>
        </mxCell>
        <mxCell id="65TKPUcENDkYGau0bu1g-462" value="Data Pasar" style="curved=1;startArrow=none;;exitX=1;exitY=0.49;entryX=0;entryY=0.5;rounded=0;" edge="1" parent="1" source="65TKPUcENDkYGau0bu1g-277" target="65TKPUcENDkYGau0bu1g-278">
          <mxGeometry relative="1" as="geometry">
            <Array as="points" />
          </mxGeometry>
        </mxCell>
        <mxCell id="65TKPUcENDkYGau0bu1g-463" value="Target Penjualan" style="curved=1;startArrow=none;;exitX=1;exitY=0.5;entryX=0;entryY=0.5;rounded=0;" edge="1" parent="1" source="65TKPUcENDkYGau0bu1g-278" target="65TKPUcENDkYGau0bu1g-286">
          <mxGeometry relative="1" as="geometry">
            <Array as="points" />
          </mxGeometry>
        </mxCell>
        <mxCell id="65TKPUcENDkYGau0bu1g-464" value="Budget Disetujui" style="curved=1;startArrow=none;;exitX=1;exitY=0.5;entryX=0;entryY=0.5;rounded=0;" edge="1" parent="1" source="65TKPUcENDkYGau0bu1g-286" target="65TKPUcENDkYGau0bu1g-298">
          <mxGeometry relative="1" as="geometry">
            <Array as="points" />
          </mxGeometry>
        </mxCell>
        <mxCell id="65TKPUcENDkYGau0bu1g-465" value="Supplier Terpilih" style="curved=1;startArrow=none;;exitX=1;exitY=0.5;entryX=0;entryY=0.5;rounded=0;" edge="1" parent="1" source="65TKPUcENDkYGau0bu1g-298" target="65TKPUcENDkYGau0bu1g-310">
          <mxGeometry relative="1" as="geometry">
            <Array as="points" />
          </mxGeometry>
        </mxCell>
        <mxCell id="65TKPUcENDkYGau0bu1g-466" value="SOP Penerimaan" style="curved=1;startArrow=none;;rounded=0;" edge="1" parent="1" source="65TKPUcENDkYGau0bu1g-310" target="65TKPUcENDkYGau0bu1g-320">
          <mxGeometry relative="1" as="geometry">
            <Array as="points" />
          </mxGeometry>
        </mxCell>
        <mxCell id="65TKPUcENDkYGau0bu1g-467" value="Laporan Kinerja Inventori" style="curved=1;startArrow=none;;rounded=0;" edge="1" parent="1" source="65TKPUcENDkYGau0bu1g-320" target="65TKPUcENDkYGau0bu1g-327">
          <mxGeometry relative="1" as="geometry">
            <Array as="points" />
          </mxGeometry>
        </mxCell>
        <mxCell id="65TKPUcENDkYGau0bu1g-468" value="" style="curved=1;startArrow=none;;exitX=0.97;exitY=0.48;entryX=0;entryY=0.5;rounded=0;" edge="1" parent="1" source="65TKPUcENDkYGau0bu1g-329" target="65TKPUcENDkYGau0bu1g-330">
          <mxGeometry relative="1" as="geometry">
            <Array as="points">
              <mxPoint x="1500" y="2646" />
            </Array>
          </mxGeometry>
        </mxCell>
        <mxCell id="65TKPUcENDkYGau0bu1g-469" value="Proses Transaksi Disetujui" style="curved=1;startArrow=none;;exitX=1;exitY=0.5;entryX=0;entryY=0.5;rounded=0;" edge="1" parent="1" source="65TKPUcENDkYGau0bu1g-330" target="65TKPUcENDkYGau0bu1g-340">
          <mxGeometry relative="1" as="geometry">
            <Array as="points" />
          </mxGeometry>
        </mxCell>
        <mxCell id="65TKPUcENDkYGau0bu1g-470" value="Standar Layanan" style="curved=1;startArrow=none;;rounded=0;" edge="1" parent="1" source="65TKPUcENDkYGau0bu1g-340" target="65TKPUcENDkYGau0bu1g-350">
          <mxGeometry relative="1" as="geometry">
            <Array as="points" />
          </mxGeometry>
        </mxCell>
        <mxCell id="65TKPUcENDkYGau0bu1g-471" value="Insight Pelanggan" style="curved=1;startArrow=none;;rounded=0;" edge="1" parent="1" source="65TKPUcENDkYGau0bu1g-350" target="65TKPUcENDkYGau0bu1g-357">
          <mxGeometry relative="1" as="geometry">
            <Array as="points" />
          </mxGeometry>
        </mxCell>
        <mxCell id="65TKPUcENDkYGau0bu1g-472" value="Laporan Keuangan Disetujui" style="curved=1;startArrow=none;;exitX=1;exitY=0.5;entryX=0.28;entryY=1;rounded=0;" edge="1" parent="1" source="65TKPUcENDkYGau0bu1g-357" target="65TKPUcENDkYGau0bu1g-367">
          <mxGeometry relative="1" as="geometry">
            <Array as="points">
              <mxPoint x="4426" y="2996" />
            </Array>
          </mxGeometry>
        </mxCell>
        <mxCell id="65TKPUcENDkYGau0bu1g-473" value="" style="curved=1;startArrow=none;;rounded=0;" edge="1" parent="1" source="65TKPUcENDkYGau0bu1g-369" target="65TKPUcENDkYGau0bu1g-370">
          <mxGeometry relative="1" as="geometry">
            <Array as="points" />
          </mxGeometry>
        </mxCell>
        <mxCell id="65TKPUcENDkYGau0bu1g-474" value="Kebijakan Keamanan" style="curved=1;startArrow=none;;rounded=0;" edge="1" parent="1" source="65TKPUcENDkYGau0bu1g-370" target="65TKPUcENDkYGau0bu1g-378">
          <mxGeometry relative="1" as="geometry">
            <Array as="points" />
          </mxGeometry>
        </mxCell>
        <mxCell id="65TKPUcENDkYGau0bu1g-475" value="Struktur Administrasi" style="curved=1;startArrow=none;;rounded=0;" edge="1" parent="1" source="65TKPUcENDkYGau0bu1g-378" target="65TKPUcENDkYGau0bu1g-323">
          <mxGeometry relative="1" as="geometry">
            <Array as="points" />
          </mxGeometry>
        </mxCell>
        <mxCell id="65TKPUcENDkYGau0bu1g-476" value="Strategi SDM" style="curved=1;startArrow=none;;rounded=0;" edge="1" parent="1" source="65TKPUcENDkYGau0bu1g-323" target="65TKPUcENDkYGau0bu1g-393">
          <mxGeometry relative="1" as="geometry">
            <Array as="points" />
          </mxGeometry>
        </mxCell>
        <mxCell id="65TKPUcENDkYGau0bu1g-477" value="Laporan Infrastruktur" style="curved=1;startArrow=none;;exitX=1;exitY=0.5;entryX=-0.03;entryY=0.52;rounded=0;" edge="1" parent="1" source="65TKPUcENDkYGau0bu1g-393" target="65TKPUcENDkYGau0bu1g-405">
          <mxGeometry relative="1" as="geometry">
            <Array as="points" />
          </mxGeometry>
        </mxCell>
        <mxCell id="65TKPUcENDkYGau0bu1g-478" value="" style="curved=1;startArrow=none;;rounded=0;" edge="1" parent="1" source="65TKPUcENDkYGau0bu1g-407" target="65TKPUcENDkYGau0bu1g-374">
          <mxGeometry relative="1" as="geometry">
            <Array as="points" />
          </mxGeometry>
        </mxCell>
        <mxCell id="65TKPUcENDkYGau0bu1g-479" value="Strategi Pemasaran" style="curved=1;startArrow=none;;rounded=0;" edge="1" parent="1" source="65TKPUcENDkYGau0bu1g-374" target="65TKPUcENDkYGau0bu1g-413">
          <mxGeometry relative="1" as="geometry">
            <Array as="points" />
          </mxGeometry>
        </mxCell>
        <mxCell id="65TKPUcENDkYGau0bu1g-480" value="Kampanye Disetujui" style="curved=1;startArrow=none;;rounded=0;" edge="1" parent="1" source="65TKPUcENDkYGau0bu1g-413" target="65TKPUcENDkYGau0bu1g-353">
          <mxGeometry relative="1" as="geometry">
            <Array as="points" />
          </mxGeometry>
        </mxCell>
        <mxCell id="65TKPUcENDkYGau0bu1g-481" value="Laporan Efektivitas &amp; Penyesuaian" style="curved=1;startArrow=none;;rounded=0;" edge="1" parent="1" source="65TKPUcENDkYGau0bu1g-353" target="65TKPUcENDkYGau0bu1g-430">
          <mxGeometry relative="1" as="geometry">
            <Array as="points" />
          </mxGeometry>
        </mxCell>
        <mxCell id="65TKPUcENDkYGau0bu1g-482" value="" style="curved=1;startArrow=none;;rounded=0;" edge="1" parent="1" source="65TKPUcENDkYGau0bu1g-431" target="65TKPUcENDkYGau0bu1g-275">
          <mxGeometry relative="1" as="geometry">
            <Array as="points" />
          </mxGeometry>
        </mxCell>
        <mxCell id="65TKPUcENDkYGau0bu1g-483" value="" style="curved=1;startArrow=none;;rounded=0;" edge="1" parent="1" source="65TKPUcENDkYGau0bu1g-275" target="65TKPUcENDkYGau0bu1g-328">
          <mxGeometry relative="1" as="geometry">
            <Array as="points" />
          </mxGeometry>
        </mxCell>
        <mxCell id="65TKPUcENDkYGau0bu1g-484" value="" style="curved=1;startArrow=none;;rounded=0;" edge="1" parent="1" source="65TKPUcENDkYGau0bu1g-328" target="65TKPUcENDkYGau0bu1g-368">
          <mxGeometry relative="1" as="geometry">
            <Array as="points" />
          </mxGeometry>
        </mxCell>
        <mxCell id="65TKPUcENDkYGau0bu1g-485" value="" style="curved=1;startArrow=none;;rounded=0;" edge="1" parent="1" source="65TKPUcENDkYGau0bu1g-368" target="65TKPUcENDkYGau0bu1g-406">
          <mxGeometry relative="1" as="geometry">
            <Array as="points" />
          </mxGeometry>
        </mxCell>
        <mxCell id="65TKPUcENDkYGau0bu1g-486" value="" style="curved=1;startArrow=none;;rounded=0;" edge="1" parent="1" source="65TKPUcENDkYGau0bu1g-406" target="65TKPUcENDkYGau0bu1g-432">
          <mxGeometry relative="1" as="geometry">
            <Array as="points" />
          </mxGeometry>
        </mxCell>
      </root>
    </mxGraphModel>
  </diagram>
</mxfile>
